<svg width="24" height="24" viewBox="0 0 24 24" fill="none" xmlns="http://www.w3.org/2000/svg">
<path d="M4.5 16.5L5.5605 15.4395L2.871 12.75H9V11.25H2.871L5.5605 8.5605L4.5 7.5L0 12L4.5 16.5Z" fill="#1656B6"/>
<path d="M12 7.50001C11.4089 7.49912 10.8235 7.61508 10.2773 7.84122C9.73121 8.06737 9.23517 8.39924 8.81775 8.81776L12 12L8.81775 15.1823C9.34105 15.7055 9.98529 16.0915 10.6934 16.3063C11.4016 16.5211 12.1517 16.5579 12.8775 16.4135C13.6033 16.2691 14.2822 15.948 14.8543 15.4785C15.4263 15.0091 15.8737 14.4058 16.1569 13.7222C16.4401 13.0385 16.5503 12.2956 16.4778 11.5591C16.4053 10.8227 16.1523 10.1155 15.7412 9.5002C15.3302 8.88489 14.7737 8.38045 14.1211 8.03156C13.4685 7.68267 12.74 7.50009 12 7.50001Z" fill="#1656B6"/>
<path d="M12 1.5C10.6212 1.49925 9.25583 1.77084 7.98228 2.29918C6.70874 2.82752 5.55209 3.6022 4.57874 4.57875L5.63924 5.63925C6.89755 4.37967 8.50118 3.5216 10.2473 3.1736C11.9933 2.8256 13.8034 3.0033 15.4485 3.68422C17.0935 4.36514 18.4997 5.51869 19.489 6.99893C20.4783 8.47916 21.0064 10.2196 21.0064 12C21.0064 13.7804 20.4783 15.5208 19.489 17.0011C18.4997 18.4813 17.0935 19.6349 15.4485 20.3158C13.8034 20.9967 11.9933 21.1744 10.2473 20.8264C8.50118 20.4784 6.89755 19.6203 5.63924 18.3608L4.57874 19.4213C5.79956 20.6419 7.30258 21.5427 8.95467 22.0437C10.6068 22.5447 12.3569 22.6306 14.0501 22.2936C15.7433 21.9567 17.3273 21.2074 18.6617 20.112C19.9961 19.0167 21.0398 17.6092 21.7003 16.0142C22.3608 14.4191 22.6178 12.6858 22.4484 10.9677C22.279 9.24967 21.6885 7.5999 20.7292 6.16456C19.7699 4.72922 18.4715 3.55262 16.9488 2.73898C15.4262 1.92535 13.7264 1.49979 12 1.5Z" fill="#1656B6"/>
</svg>
